<mxfile host="app.diagrams.net" modified="2023-05-03T18:37:04.701Z" agent="Mozilla/5.0 (Windows NT 10.0; Win64; x64) AppleWebKit/537.36 (KHTML, like Gecko) Chrome/112.0.0.0 Safari/537.36" etag="YxOK9IU2HqUSILqwCUT6" version="21.2.4" type="device">
  <diagram name="Page-1" id="HVWVPMNDx6Q1aaSiO3_G">
    <mxGraphModel dx="4177" dy="1327" grid="1" gridSize="10" guides="1" tooltips="1" connect="1" arrows="1" fold="1" page="1" pageScale="1" pageWidth="850" pageHeight="1100" math="0" shadow="0">
      <root>
        <mxCell id="0" />
        <mxCell id="1" parent="0" />
        <mxCell id="erKG9Mf-t_4Ue-Tq9eLv-8" value="&lt;font style=&quot;font-size: 21px;&quot;&gt;Board System&lt;/font&gt;" style="swimlane;whiteSpace=wrap;html=1;startSize=70;fillColor=#f8cecc;strokeColor=#b85450;strokeWidth=3;" parent="1" vertex="1">
          <mxGeometry x="-760" y="400" width="600" height="700" as="geometry" />
        </mxCell>
        <mxCell id="erKG9Mf-t_4Ue-Tq9eLv-35" value="&lt;font style=&quot;font-size: 21px;&quot;&gt;LCD&lt;/font&gt;" style="shape=internalStorage;whiteSpace=wrap;html=1;backgroundOutline=1;fontSize=11;fillColor=#e1d5e7;strokeColor=#9673a6;" parent="erKG9Mf-t_4Ue-Tq9eLv-8" vertex="1">
          <mxGeometry x="400" y="110" width="160" height="160" as="geometry" />
        </mxCell>
        <mxCell id="erKG9Mf-t_4Ue-Tq9eLv-38" value="ESP32 SMT Module" style="swimlane;whiteSpace=wrap;html=1;fontSize=18;startSize=90;fillColor=#cdeb8b;strokeColor=#36393d;" parent="erKG9Mf-t_4Ue-Tq9eLv-8" vertex="1">
          <mxGeometry x="-190" y="110" width="520" height="370" as="geometry" />
        </mxCell>
        <mxCell id="erKG9Mf-t_4Ue-Tq9eLv-39" value="ESP32 CPU" style="whiteSpace=wrap;html=1;aspect=fixed;fontSize=18;fillColor=#cdeb8b;strokeColor=#36393d;" parent="erKG9Mf-t_4Ue-Tq9eLv-38" vertex="1">
          <mxGeometry x="270" y="140" width="160" height="160" as="geometry" />
        </mxCell>
        <mxCell id="TZyaPP61fnedCUGW_qm0-67" value="" style="endArrow=classic;html=1;rounded=0;fontSize=18;" parent="erKG9Mf-t_4Ue-Tq9eLv-38" edge="1">
          <mxGeometry width="50" height="50" relative="1" as="geometry">
            <mxPoint x="210" y="290" as="sourcePoint" />
            <mxPoint x="210" y="230" as="targetPoint" />
          </mxGeometry>
        </mxCell>
        <mxCell id="TZyaPP61fnedCUGW_qm0-68" value="Internally Connected Already" style="text;html=1;strokeColor=none;fillColor=none;align=center;verticalAlign=middle;whiteSpace=wrap;rounded=0;fontSize=18;" parent="erKG9Mf-t_4Ue-Tq9eLv-38" vertex="1">
          <mxGeometry x="180" y="300" width="60" height="30" as="geometry" />
        </mxCell>
        <mxCell id="TZyaPP61fnedCUGW_qm0-31" style="edgeStyle=orthogonalEdgeStyle;rounded=0;orthogonalLoop=1;jettySize=auto;html=1;exitX=0.5;exitY=0;exitDx=0;exitDy=0;entryX=0;entryY=0.75;entryDx=0;entryDy=0;fontSize=18;" parent="erKG9Mf-t_4Ue-Tq9eLv-8" source="erKG9Mf-t_4Ue-Tq9eLv-39" target="erKG9Mf-t_4Ue-Tq9eLv-35" edge="1">
          <mxGeometry relative="1" as="geometry" />
        </mxCell>
        <mxCell id="TZyaPP61fnedCUGW_qm0-58" value="LCD Data" style="edgeLabel;html=1;align=center;verticalAlign=middle;resizable=0;points=[];fontSize=18;" parent="TZyaPP61fnedCUGW_qm0-31" connectable="0" vertex="1">
          <mxGeometry x="0.2199" y="-1" relative="1" as="geometry">
            <mxPoint x="-29" as="offset" />
          </mxGeometry>
        </mxCell>
        <mxCell id="TZyaPP61fnedCUGW_qm0-124" style="edgeStyle=orthogonalEdgeStyle;rounded=0;orthogonalLoop=1;jettySize=auto;html=1;exitX=0.5;exitY=0;exitDx=0;exitDy=0;entryX=0.5;entryY=1;entryDx=0;entryDy=0;fontSize=14;" parent="erKG9Mf-t_4Ue-Tq9eLv-8" source="TZyaPP61fnedCUGW_qm0-123" target="erKG9Mf-t_4Ue-Tq9eLv-39" edge="1">
          <mxGeometry relative="1" as="geometry">
            <Array as="points">
              <mxPoint x="300" y="450" />
              <mxPoint x="160" y="450" />
            </Array>
          </mxGeometry>
        </mxCell>
        <mxCell id="TZyaPP61fnedCUGW_qm0-127" value="Switch between Algorithms" style="edgeLabel;html=1;align=center;verticalAlign=middle;resizable=0;points=[];fontSize=14;" parent="TZyaPP61fnedCUGW_qm0-124" connectable="0" vertex="1">
          <mxGeometry x="-0.6657" y="4" relative="1" as="geometry">
            <mxPoint x="4" y="-35" as="offset" />
          </mxGeometry>
        </mxCell>
        <mxCell id="TZyaPP61fnedCUGW_qm0-123" value="&lt;font style=&quot;font-size: 14px;&quot;&gt;Switches&lt;/font&gt;" style="rhombus;whiteSpace=wrap;html=1;fontSize=25;fillColor=#f0a30a;fontColor=#000000;strokeColor=#BD7000;" parent="erKG9Mf-t_4Ue-Tq9eLv-8" vertex="1">
          <mxGeometry x="260" y="610" width="80" height="80" as="geometry" />
        </mxCell>
        <mxCell id="erKG9Mf-t_4Ue-Tq9eLv-11" value="&lt;span style=&quot;font-size: 21px;&quot;&gt;Imaging System&lt;/span&gt;" style="swimlane;whiteSpace=wrap;html=1;startSize=70;fillColor=#dae8fc;strokeColor=#6c8ebf;strokeWidth=4;" parent="1" vertex="1">
          <mxGeometry x="-110" y="560" width="450" height="540" as="geometry" />
        </mxCell>
        <mxCell id="erKG9Mf-t_4Ue-Tq9eLv-13" value="Delite 10 FPGA" style="whiteSpace=wrap;html=1;aspect=fixed;fillColor=#b1ddf0;strokeColor=#10739e;" parent="erKG9Mf-t_4Ue-Tq9eLv-11" vertex="1">
          <mxGeometry x="250" y="330" width="160" height="160" as="geometry" />
        </mxCell>
        <mxCell id="erKG9Mf-t_4Ue-Tq9eLv-30" value="Thermal Receipt Printer" style="whiteSpace=wrap;html=1;aspect=fixed;fontSize=11;fillColor=#647687;fontColor=#ffffff;strokeColor=#314354;" parent="erKG9Mf-t_4Ue-Tq9eLv-11" vertex="1">
          <mxGeometry x="250" y="90" width="160" height="160" as="geometry" />
        </mxCell>
        <mxCell id="erKG9Mf-t_4Ue-Tq9eLv-15" value="Battery System" style="swimlane;horizontal=0;whiteSpace=wrap;html=1;fontSize=21;fillColor=#e1d5e7;strokeColor=#9673a6;strokeWidth=5;" parent="1" vertex="1">
          <mxGeometry x="-1060" y="1170" width="960" height="290" as="geometry" />
        </mxCell>
        <mxCell id="TZyaPP61fnedCUGW_qm0-2" style="edgeStyle=orthogonalEdgeStyle;rounded=0;orthogonalLoop=1;jettySize=auto;html=1;exitX=0;exitY=0.5;exitDx=0;exitDy=0;entryX=1;entryY=0.5;entryDx=0;entryDy=0;fontSize=18;" parent="erKG9Mf-t_4Ue-Tq9eLv-15" source="erKG9Mf-t_4Ue-Tq9eLv-19" target="nSZPkJh6JGXct4D-9wGW-1" edge="1">
          <mxGeometry relative="1" as="geometry">
            <Array as="points">
              <mxPoint x="680" y="124" />
              <mxPoint x="680" y="140" />
            </Array>
            <mxPoint x="600" y="120" as="targetPoint" />
          </mxGeometry>
        </mxCell>
        <mxCell id="erKG9Mf-t_4Ue-Tq9eLv-19" value="&lt;span style=&quot;font-size: 18px;&quot;&gt;Battery Charger&lt;/span&gt;" style="rounded=1;whiteSpace=wrap;html=1;fontSize=11;fillColor=#d5e8d4;strokeColor=#82b366;" parent="erKG9Mf-t_4Ue-Tq9eLv-15" vertex="1">
          <mxGeometry x="750" y="63.75" width="140" height="120" as="geometry" />
        </mxCell>
        <mxCell id="TZyaPP61fnedCUGW_qm0-3" value="" style="edgeStyle=orthogonalEdgeStyle;rounded=0;orthogonalLoop=1;jettySize=auto;html=1;fontSize=18;" parent="erKG9Mf-t_4Ue-Tq9eLv-15" target="erKG9Mf-t_4Ue-Tq9eLv-37" edge="1">
          <mxGeometry relative="1" as="geometry">
            <mxPoint x="510" y="153.75" as="sourcePoint" />
          </mxGeometry>
        </mxCell>
        <mxCell id="TZyaPP61fnedCUGW_qm0-101" value="7.4-8.4V" style="edgeLabel;html=1;align=center;verticalAlign=middle;resizable=0;points=[];fontSize=18;" parent="TZyaPP61fnedCUGW_qm0-3" connectable="0" vertex="1">
          <mxGeometry x="0.204" y="3" relative="1" as="geometry">
            <mxPoint x="13" y="-3" as="offset" />
          </mxGeometry>
        </mxCell>
        <mxCell id="erKG9Mf-t_4Ue-Tq9eLv-37" value="Power Regulator" style="rounded=1;whiteSpace=wrap;html=1;fontSize=12;fillColor=#ffff88;strokeColor=#36393d;" parent="erKG9Mf-t_4Ue-Tq9eLv-15" vertex="1">
          <mxGeometry x="50" y="71.25" width="340" height="165" as="geometry" />
        </mxCell>
        <mxCell id="nSZPkJh6JGXct4D-9wGW-1" value="Battery Pack" style="rounded=1;whiteSpace=wrap;html=1;fillColor=#ffcccc;strokeColor=#36393d;" parent="erKG9Mf-t_4Ue-Tq9eLv-15" vertex="1">
          <mxGeometry x="510" y="50" width="85" height="180" as="geometry" />
        </mxCell>
        <mxCell id="erKG9Mf-t_4Ue-Tq9eLv-17" value="&lt;span style=&quot;font-size: 21px;&quot;&gt;Wireless System&lt;/span&gt;" style="swimlane;whiteSpace=wrap;html=1;startSize=70;fillColor=#ffe6cc;strokeColor=#d79b00;strokeWidth=4;" parent="1" vertex="1">
          <mxGeometry x="-1670" y="400" width="910" height="700" as="geometry" />
        </mxCell>
        <mxCell id="erKG9Mf-t_4Ue-Tq9eLv-34" value="Web Server w/ Image Upload from User" style="ellipse;shape=cloud;whiteSpace=wrap;html=1;fontSize=12;fillColor=#cce5ff;strokeColor=#36393d;" parent="erKG9Mf-t_4Ue-Tq9eLv-17" vertex="1">
          <mxGeometry x="80" y="190" width="410" height="280" as="geometry" />
        </mxCell>
        <mxCell id="erKG9Mf-t_4Ue-Tq9eLv-40" value="Wi-Fi Chip" style="rounded=0;whiteSpace=wrap;html=1;fontSize=18;fillColor=#cdeb8b;strokeColor=#36393d;" parent="erKG9Mf-t_4Ue-Tq9eLv-17" vertex="1">
          <mxGeometry x="750" y="222.5" width="130" height="215" as="geometry" />
        </mxCell>
        <mxCell id="TZyaPP61fnedCUGW_qm0-113" value="" style="endArrow=classic;html=1;rounded=0;fontSize=18;exitX=0.88;exitY=0.25;exitDx=0;exitDy=0;exitPerimeter=0;entryX=0;entryY=0.25;entryDx=0;entryDy=0;" parent="erKG9Mf-t_4Ue-Tq9eLv-17" source="erKG9Mf-t_4Ue-Tq9eLv-34" target="erKG9Mf-t_4Ue-Tq9eLv-40" edge="1">
          <mxGeometry width="50" height="50" relative="1" as="geometry">
            <mxPoint x="510" y="300" as="sourcePoint" />
            <mxPoint x="560" y="250" as="targetPoint" />
          </mxGeometry>
        </mxCell>
        <mxCell id="TZyaPP61fnedCUGW_qm0-114" value="Image Data (.png)" style="edgeLabel;html=1;align=center;verticalAlign=middle;resizable=0;points=[];fontSize=18;" parent="TZyaPP61fnedCUGW_qm0-113" connectable="0" vertex="1">
          <mxGeometry x="-0.2682" relative="1" as="geometry">
            <mxPoint as="offset" />
          </mxGeometry>
        </mxCell>
        <mxCell id="TZyaPP61fnedCUGW_qm0-117" value="" style="endArrow=classic;startArrow=classic;html=1;rounded=0;fontSize=18;exitX=0.875;exitY=0.5;exitDx=0;exitDy=0;exitPerimeter=0;entryX=0;entryY=0.5;entryDx=0;entryDy=0;" parent="erKG9Mf-t_4Ue-Tq9eLv-17" source="erKG9Mf-t_4Ue-Tq9eLv-34" target="erKG9Mf-t_4Ue-Tq9eLv-40" edge="1">
          <mxGeometry width="50" height="50" relative="1" as="geometry">
            <mxPoint x="470" y="380" as="sourcePoint" />
            <mxPoint x="520" y="330" as="targetPoint" />
          </mxGeometry>
        </mxCell>
        <mxCell id="TZyaPP61fnedCUGW_qm0-118" value="TCP" style="edgeLabel;html=1;align=center;verticalAlign=middle;resizable=0;points=[];fontSize=18;" parent="TZyaPP61fnedCUGW_qm0-117" connectable="0" vertex="1">
          <mxGeometry x="0.0949" y="-2" relative="1" as="geometry">
            <mxPoint as="offset" />
          </mxGeometry>
        </mxCell>
        <mxCell id="erKG9Mf-t_4Ue-Tq9eLv-42" value="" style="shape=flexArrow;endArrow=classic;startArrow=classic;html=1;rounded=0;fontSize=18;entryX=0;entryY=0.5;entryDx=0;entryDy=0;exitX=1;exitY=0.5;exitDx=0;exitDy=0;" parent="1" source="erKG9Mf-t_4Ue-Tq9eLv-40" target="erKG9Mf-t_4Ue-Tq9eLv-39" edge="1">
          <mxGeometry width="100" height="100" relative="1" as="geometry">
            <mxPoint x="-780" y="1030" as="sourcePoint" />
            <mxPoint x="-680" y="930" as="targetPoint" />
          </mxGeometry>
        </mxCell>
        <mxCell id="TZyaPP61fnedCUGW_qm0-32" style="edgeStyle=orthogonalEdgeStyle;rounded=0;orthogonalLoop=1;jettySize=auto;html=1;exitX=1;exitY=0.5;exitDx=0;exitDy=0;fontSize=18;entryX=0;entryY=0.5;entryDx=0;entryDy=0;" parent="1" source="erKG9Mf-t_4Ue-Tq9eLv-39" target="erKG9Mf-t_4Ue-Tq9eLv-30" edge="1">
          <mxGeometry relative="1" as="geometry">
            <mxPoint x="140" y="690" as="targetPoint" />
          </mxGeometry>
        </mxCell>
        <mxCell id="TZyaPP61fnedCUGW_qm0-62" value="Bitmapped Image to Print" style="edgeLabel;html=1;align=center;verticalAlign=middle;resizable=0;points=[];fontSize=18;" parent="TZyaPP61fnedCUGW_qm0-32" connectable="0" vertex="1">
          <mxGeometry x="0.126" y="-1" relative="1" as="geometry">
            <mxPoint x="158" y="-1" as="offset" />
          </mxGeometry>
        </mxCell>
        <mxCell id="TZyaPP61fnedCUGW_qm0-102" style="edgeStyle=orthogonalEdgeStyle;rounded=0;orthogonalLoop=1;jettySize=auto;html=1;exitX=0;exitY=0.75;exitDx=0;exitDy=0;entryX=0.5;entryY=1;entryDx=0;entryDy=0;fontSize=18;fillColor=#e51400;strokeColor=#B20000;" parent="1" source="erKG9Mf-t_4Ue-Tq9eLv-13" target="erKG9Mf-t_4Ue-Tq9eLv-40" edge="1">
          <mxGeometry relative="1" as="geometry">
            <Array as="points">
              <mxPoint x="140" y="990" />
              <mxPoint x="-855" y="990" />
            </Array>
          </mxGeometry>
        </mxCell>
        <mxCell id="TZyaPP61fnedCUGW_qm0-103" value="3.3V @ 600mA" style="edgeLabel;html=1;align=center;verticalAlign=middle;resizable=0;points=[];fontSize=18;" parent="TZyaPP61fnedCUGW_qm0-102" connectable="0" vertex="1">
          <mxGeometry x="0.0913" y="1" relative="1" as="geometry">
            <mxPoint x="-358" y="-41" as="offset" />
          </mxGeometry>
        </mxCell>
        <mxCell id="TZyaPP61fnedCUGW_qm0-106" style="edgeStyle=orthogonalEdgeStyle;rounded=0;orthogonalLoop=1;jettySize=auto;html=1;exitX=0;exitY=0.5;exitDx=0;exitDy=0;entryX=0.5;entryY=1;entryDx=0;entryDy=0;fontSize=18;fillColor=#e51400;strokeColor=#B20000;" parent="1" source="erKG9Mf-t_4Ue-Tq9eLv-13" target="erKG9Mf-t_4Ue-Tq9eLv-35" edge="1">
          <mxGeometry relative="1" as="geometry">
            <Array as="points">
              <mxPoint x="-280" y="970" />
            </Array>
          </mxGeometry>
        </mxCell>
        <mxCell id="TZyaPP61fnedCUGW_qm0-107" value="3.3 V" style="edgeLabel;html=1;align=center;verticalAlign=middle;resizable=0;points=[];fontSize=18;" parent="TZyaPP61fnedCUGW_qm0-106" connectable="0" vertex="1">
          <mxGeometry x="-0.2052" y="3" relative="1" as="geometry">
            <mxPoint x="-144" y="-93" as="offset" />
          </mxGeometry>
        </mxCell>
        <mxCell id="TZyaPP61fnedCUGW_qm0-108" style="edgeStyle=orthogonalEdgeStyle;rounded=0;orthogonalLoop=1;jettySize=auto;html=1;exitX=0.5;exitY=0;exitDx=0;exitDy=0;entryX=0.5;entryY=1;entryDx=0;entryDy=0;fontSize=18;fillColor=#e51400;strokeColor=#B20000;" parent="1" source="erKG9Mf-t_4Ue-Tq9eLv-37" target="erKG9Mf-t_4Ue-Tq9eLv-13" edge="1">
          <mxGeometry relative="1" as="geometry">
            <Array as="points">
              <mxPoint x="-840" y="1140" />
              <mxPoint x="220" y="1140" />
            </Array>
          </mxGeometry>
        </mxCell>
        <mxCell id="TZyaPP61fnedCUGW_qm0-110" value="5V" style="edgeLabel;html=1;align=center;verticalAlign=middle;resizable=0;points=[];fontSize=18;" parent="TZyaPP61fnedCUGW_qm0-108" connectable="0" vertex="1">
          <mxGeometry x="0.5502" y="1" relative="1" as="geometry">
            <mxPoint x="-1" as="offset" />
          </mxGeometry>
        </mxCell>
        <mxCell id="TZyaPP61fnedCUGW_qm0-109" style="edgeStyle=orthogonalEdgeStyle;rounded=0;orthogonalLoop=1;jettySize=auto;html=1;exitX=0.5;exitY=0;exitDx=0;exitDy=0;entryX=1;entryY=0.75;entryDx=0;entryDy=0;fontSize=18;fillColor=#e51400;strokeColor=#B20000;" parent="1" source="nSZPkJh6JGXct4D-9wGW-1" target="erKG9Mf-t_4Ue-Tq9eLv-30" edge="1">
          <mxGeometry relative="1" as="geometry">
            <Array as="points">
              <mxPoint x="-507" y="1160" />
              <mxPoint x="320" y="1160" />
              <mxPoint x="320" y="770" />
            </Array>
          </mxGeometry>
        </mxCell>
        <mxCell id="TZyaPP61fnedCUGW_qm0-111" value="&amp;lt;= 9V" style="edgeLabel;html=1;align=center;verticalAlign=middle;resizable=0;points=[];fontSize=18;" parent="TZyaPP61fnedCUGW_qm0-109" connectable="0" vertex="1">
          <mxGeometry x="0.5259" y="4" relative="1" as="geometry">
            <mxPoint x="64" y="9" as="offset" />
          </mxGeometry>
        </mxCell>
        <mxCell id="TZyaPP61fnedCUGW_qm0-119" value="&lt;font style=&quot;font-size: 25px;&quot;&gt;All Power Lines are drawn in Red and are very conservative in order to account for real-world tolerances&lt;/font&gt;" style="text;html=1;strokeColor=#B20000;fillColor=#e51400;align=center;verticalAlign=middle;whiteSpace=wrap;rounded=0;fontSize=18;fontColor=#ffffff;" parent="1" vertex="1">
          <mxGeometry x="-1670" y="1170" width="430" height="170" as="geometry" />
        </mxCell>
        <mxCell id="nSZPkJh6JGXct4D-9wGW-6" value="" style="endArrow=classic;startArrow=classic;html=1;rounded=0;fontSize=18;exitX=1;exitY=0.75;exitDx=0;exitDy=0;entryX=0;entryY=0.25;entryDx=0;entryDy=0;" parent="1" source="erKG9Mf-t_4Ue-Tq9eLv-39" target="erKG9Mf-t_4Ue-Tq9eLv-13" edge="1">
          <mxGeometry width="50" height="50" relative="1" as="geometry">
            <mxPoint x="-290" y="890" as="sourcePoint" />
            <mxPoint x="-240" y="840" as="targetPoint" />
            <Array as="points">
              <mxPoint x="-80" y="770" />
              <mxPoint x="-80" y="930" />
            </Array>
          </mxGeometry>
        </mxCell>
        <mxCell id="nSZPkJh6JGXct4D-9wGW-7" value="SPI Image Data /&amp;nbsp;SPI Bitmapped Data" style="edgeLabel;html=1;align=center;verticalAlign=middle;resizable=0;points=[];fontSize=18;" parent="nSZPkJh6JGXct4D-9wGW-6" connectable="0" vertex="1">
          <mxGeometry x="0.3065" relative="1" as="geometry">
            <mxPoint x="140" y="-16" as="offset" />
          </mxGeometry>
        </mxCell>
      </root>
    </mxGraphModel>
  </diagram>
</mxfile>
